# xmcd
#
# Track frame offsets: 
#        150
#        16832
#        37695
#        56670
#        89881
#        108147
#        133070
#        148017
#        162802
#        189825
#        211778
#        229909
#        252647
#        268547
#        282130
#
# Disc length: 3969 seconds
#
# Revision: 0
# Processed by: cddbd v1.5.1PL0 Copyright (c) Steve Scherf et al.
# Submitted via: ExactAudioCopy v0.95b3
#
DISCID=cd0f7f0f
DTITLE=Various Artist - Le Blues Autour Du Zinc 2001
DYEAR=2001
DGENRE=
TTITLE0=Parker's Alibi - Cheatin' on ypu
TTITLE1=Strange Brew - Baby don't leave
TTITLE2=Mike Sanchez - Just can't afford it
TTITLE3=Connie Lush and Blues Shouter - I'll sing the blues for you
TTITLE4=Butt Naked - Cool cool woman
TTITLE5=Bob Walsh - These days
TTITLE6=Ras Smaila - Black man's blues
TTITLE7=The Bone's Project - Ride to the city
TTITLE8=Paul Lamb and The King Snakes - Lend a hand
TTITLE9=Miguel M. and The Brachay's Blues Band - Spanish Boy
TTITLE10=Swampini - Sweet Norma in jeans
TTITLE11=Larry Sassapick Band - The Jay Beat
TTITLE12=Blues Breakers Band - Talk Alone
TTITLE13=Little Victor and Sophie Kay - Two days ago
TTITLE14=Malted Milk - Straight woman blues
EXTD=
EXTT0=
EXTT1=
EXTT2=
EXTT3=
EXTT4=
EXTT5=
EXTT6=
EXTT7=
EXTT8=
EXTT9=
EXTT10=
EXTT11=
EXTT12=
EXTT13=
EXTT14=
PLAYORDER=
